<?xml version="1.0" encoding="utf-8"?>
<!-- Generator: Adobe Illustrator 18.0.0, SVG Export Plug-In . SVG Version: 6.00 Build 0)  -->
<!DOCTYPE svg PUBLIC "-//W3C//DTD SVG 1.1//EN" "http://www.w3.org/Graphics/SVG/1.1/DTD/svg11.dtd">
<svg version="1.1" id="Layer_1" xmlns="http://www.w3.org/2000/svg" xmlns:xlink="http://www.w3.org/1999/xlink" x="0px" y="0px"
	 width="24px" height="23.986px" viewBox="0 0 24 23.986" enable-background="new 0 0 24 23.986" xml:space="preserve">
<path fill="#808080" d="M3.414,23.403l5.743-5.74c0.066-0.066,0.117-0.14,0.172-0.211c1.489,0.969,3.262,1.537,5.172,1.537
	c5.247,0,9.499-4.25,9.499-9.495C24,4.252,19.747,0,14.501,0C9.253,0,5.002,4.252,5.002,9.495c0,1.907,0.568,3.682,1.538,5.171
	c-0.072,0.055-0.144,0.105-0.21,0.17l-5.743,5.738C0.195,20.966,0,21.478,0,21.987c0,0.511,0.195,1.022,0.585,1.415
	C1.367,24.181,2.633,24.181,3.414,23.403 M8.001,9.495c0-3.582,2.916-6.496,6.5-6.496C18.083,2.998,21,5.913,21,9.495
	c0,3.58-2.917,6.496-6.499,6.496C10.917,15.991,8.001,13.075,8.001,9.495"/>
</svg>
