<?xml version="1.0" encoding="utf-8"?><!DOCTYPE svg PUBLIC "-//W3C//DTD SVG 1.1//EN" "http://www.w3.org/Graphics/SVG/1.1/DTD/svg11.dtd"><svg version="1.1" baseProfile="full" xmlns="http://www.w3.org/2000/svg" xmlns:xlink="http://www.w3.org/1999/xlink" xmlns:ev="http://www.w3.org/2001/xml-events"   height="41px"   width="41px" ><path fill="rgb( 175, 175, 175 )" d="M39.5899999999999,20.203 C39.5899999999999,20.203 36.6780000000001,19.7959999999998 36.6780000000001,19.7959999999998 C36.5899999999999,17.8029999999999 36.1600000000001,15.8899999999999 35.4010000000001,14.0929999999998 C35.4010000000001,14.0929999999998 37.819,12.2689999999998 37.819,12.2689999999998 C37.9749999999999,12.1500000000001 38.079,11.9720000000002 38.107,11.7779999999998 C38.134,11.5819999999999 38.0820000000001,11.3829999999998 37.963,11.2240000000002 C37.963,11.2240000000002 34.598,6.77399999999989 34.598,6.77399999999989 C34.479,6.61700000000019 34.3030000000001,6.51400000000012 34.106,6.48500000000013 C33.9069999999999,6.45699999999988 33.712,6.51000000000022 33.5550000000001,6.63000000000011 C33.5550000000001,6.63000000000011 31.3240000000001,8.3159999999998 31.3240000000001,8.3159999999998 C29.846,6.95200000000023 28.1579999999999,5.88200000000006 26.2919999999999,5.12899999999991 C26.2919999999999,5.12899999999991 26.6890000000001,2.27399999999989 26.6890000000001,2.27399999999989 C26.7180000000001,2.07799999999997 26.665,1.88000000000011 26.546,1.72200000000021 C26.4280000000001,1.56399999999985 26.251,1.46199999999999 26.056,1.43299999999999 C26.056,1.43299999999999 20.5350000000001,0.66600000000017 20.5350000000001,0.66600000000017 C20.329,0.63700000000017 20.1389999999999,0.69000000000005 19.982,0.80999999999995 C19.825,0.92700000000013 19.722,1.10600000000022 19.694,1.30200000000013 C19.694,1.30200000000013 19.327,3.95200000000023 19.327,3.95200000000023 C17.2670000000001,4.03900000000021 15.2919999999999,4.49099999999999 13.4400000000001,5.30000000000018 C13.4400000000001,5.30000000000018 11.7560000000001,3.07499999999982 11.7560000000001,3.07499999999982 C11.509,2.74800000000005 11.0440000000001,2.6840000000002 10.7139999999999,2.92999999999984 C10.7139999999999,2.92999999999984 6.26700000000005,6.28900000000021 6.26700000000005,6.28900000000021 C6.1099999999999,6.40900000000011 6.00600000000009,6.58500000000004 5.97900000000004,6.7800000000002 C5.95100000000002,6.97699999999986 6.00399999999991,7.17399999999998 6.12300000000005,7.33300000000008 C6.12300000000005,7.33300000000008 7.71599999999989,9.44300000000021 7.71599999999989,9.44300000000021 C6.33500000000004,10.9720000000002 5.27299999999991,12.6970000000001 4.54700000000003,14.5859999999998 C4.54700000000003,14.5859999999998 1.75999999999999,14.1999999999998 1.75999999999999,14.1999999999998 C1.5619999999999,14.1729999999998 1.36699999999996,14.2249999999999 1.20900000000006,14.3429999999998 C1.05300000000011,14.4630000000002 0.94699999999989,14.6379999999999 0.92100000000005,14.835 C0.92100000000005,14.835 0.15699999999993,20.355 0.15699999999993,20.355 C0.09999999999991,20.7620000000002 0.38300000000004,21.1370000000002 0.78999999999996,21.1930000000002 C0.78999999999996,21.1930000000002 3.48700000000008,21.569 3.48700000000008,21.569 C3.60699999999997,23.5839999999998 4.08300000000008,25.527 4.9079999999999,27.3609999999999 C4.9079999999999,27.3609999999999 2.56099999999992,29.134 2.56099999999992,29.134 C2.2360000000001,29.3809999999999 2.16799999999989,29.848 2.41799999999989,30.1770000000001 C2.41799999999989,30.1770000000001 5.779,34.623 5.779,34.623 C6.02600000000007,34.9520000000002 6.49199999999996,35.0129999999999 6.81899999999996,34.7669999999998 C6.81899999999996,34.7669999999998 9.1110000000001,33.038 9.1110000000001,33.038 C10.5889999999999,34.3409999999999 12.297,35.3809999999999 14.1079999999999,36.0819999999999 C14.1079999999999,36.0819999999999 13.6900000000001,39.1260000000002 13.6900000000001,39.1260000000002 C13.6320000000001,39.5320000000002 13.9179999999999,39.9070000000002 14.3240000000001,39.9639999999999 C14.3240000000001,39.9639999999999 19.8430000000001,40.7310000000002 19.8430000000001,40.7310000000002 C19.877,40.7359999999999 19.912,40.739 19.9469999999999,40.739 C20.3119999999999,40.739 20.6310000000001,40.4699999999998 20.683,40.098 C20.683,40.098 21.0989999999999,37.1390000000001 21.0989999999999,37.1390000000001 C23.05,37.0259999999998 24.9349999999999,36.5790000000002 26.7149999999999,35.806 C26.7149999999999,35.806 28.616,38.3220000000001 28.616,38.3220000000001 C28.866,38.6509999999998 29.3320000000001,38.7109999999998 29.6590000000001,38.4679999999998 C29.6590000000001,38.4679999999998 34.1089999999999,35.1109999999999 34.1089999999999,35.1109999999999 C34.268,34.9929999999999 34.3699999999999,34.8130000000001 34.3979999999999,34.6179999999999 C34.4259999999999,34.422 34.373,34.2240000000002 34.2550000000001,34.0659999999998 C34.2550000000001,34.0659999999998 32.434,31.6559999999999 32.434,31.6559999999999 C33.7449999999999,30.2089999999998 34.7729999999999,28.567 35.499,26.7660000000001 C35.499,26.7660000000001 38.614,27.1979999999999 38.614,27.1979999999999 C39.008,27.248 39.396,26.971 39.4549999999999,26.5639999999999 C39.4549999999999,26.5639999999999 40.223,21.0430000000001 40.223,21.0430000000001 C40.28,20.636 39.9970000000001,20.259 39.5899999999999,20.203 ZM24.3879999999999,26.2600000000002 C23.136,27.2060000000001 21.646,27.7069999999999 20.0809999999999,27.7069999999999 C17.8140000000001,27.7069999999999 15.73,26.672 14.364,24.866 C11.9880000000001,21.7199999999998 12.614,17.2269999999999 15.7650000000001,14.846 C17.0170000000001,13.9000000000001 18.5070000000001,13.4009999999998 20.0709999999999,13.4009999999998 C22.338,13.4009999999998 24.4179999999999,14.4340000000002 25.7809999999999,16.2359999999999 C28.1600000000001,19.384 27.5360000000001,23.8820000000001 24.3879999999999,26.2600000000002 Z "/></svg>