<?xml version="1.0" encoding="utf-8"?><!DOCTYPE svg PUBLIC "-//W3C//DTD SVG 1.1//EN" "http://www.w3.org/Graphics/SVG/1.1/DTD/svg11.dtd"><svg version="1.1" baseProfile="full" xmlns="http://www.w3.org/2000/svg" xmlns:xlink="http://www.w3.org/1999/xlink" xmlns:ev="http://www.w3.org/2001/xml-events"   height="41px"   width="41px" ><path fill="rgb( 175, 175, 175 )" d="M0.75300000000004,19.491 C0.75300000000004,19.491 0.73800000000006,6.59700000000021 0.73800000000006,6.59700000000021 C0.73800000000006,6.59700000000021 16.603,4.44300000000021 16.603,4.44300000000021 C16.603,4.44300000000021 16.603,19.491 16.603,19.491 C16.603,19.491 0.75300000000004,19.491 0.75300000000004,19.491 ZM19.248,4.05799999999999 C19.248,4.05799999999999 40.395,0.98100000000022 40.395,0.98100000000022 C40.395,0.98100000000022 40.395,19.491 40.395,19.491 C40.395,19.491 19.248,19.491 19.248,19.491 C19.248,19.491 19.248,4.05799999999999 19.248,4.05799999999999 ZM40.401,22.134 C40.401,22.134 40.395,40.6439999999998 40.395,40.6439999999998 C40.395,40.6439999999998 19.248,37.6689999999999 19.248,37.6689999999999 C19.248,37.6689999999999 19.248,22.134 19.248,22.134 C19.248,22.134 40.401,22.134 40.401,22.134 ZM16.603,37.3319999999999 C16.603,37.3319999999999 0.75099999999998,35.1579999999999 0.75099999999998,35.1579999999999 C0.75099999999998,35.1579999999999 0.75,22.134 0.75,22.134 C0.75,22.134 16.603,22.134 16.603,22.134 C16.603,22.134 16.603,37.3319999999999 16.603,37.3319999999999 Z "/></svg>