<?xml version="1.0" encoding="utf-8"?><!DOCTYPE svg PUBLIC "-//W3C//DTD SVG 1.1//EN" "http://www.w3.org/Graphics/SVG/1.1/DTD/svg11.dtd"><svg version="1.1" baseProfile="full" xmlns="http://www.w3.org/2000/svg" xmlns:xlink="http://www.w3.org/1999/xlink" xmlns:ev="http://www.w3.org/2001/xml-events"   height="41px"   width="35px" ><path fill="rgb( 175, 175, 175 )" d="M32.276,13.1460000000002 C30.912,13.1460000000002 29.797,14.2620000000002 29.797,15.625 C29.797,15.625 29.797,25.5410000000002 29.797,25.5410000000002 C29.797,26.904 30.912,28.02 32.276,28.02 C33.64,28.02 34.755,26.904 34.755,25.5410000000002 C34.755,25.5410000000002 34.755,15.625 34.755,15.625 C34.755,14.2620000000002 33.64,13.1460000000002 32.276,13.1460000000002 ZM2.529,13.1460000000002 C1.16499999999996,13.1460000000002 0.04999999999995,14.2620000000002 0.04999999999995,15.625 C0.04999999999995,15.625 0.04999999999995,25.5410000000002 0.04999999999995,25.5410000000002 C0.04999999999995,26.904 1.16499999999996,28.02 2.529,28.02 C3.89300000000003,28.02 5.00800000000004,26.904 5.00800000000004,25.5410000000002 C5.00800000000004,25.5410000000002 5.00800000000004,15.625 5.00800000000004,15.625 C5.00800000000004,14.2620000000002 3.89300000000003,13.1460000000002 2.529,13.1460000000002 ZM6.24800000000005,29.259 C6.24800000000005,31.3119999999999 7.91200000000003,32.9769999999999 9.96600000000001,32.9769999999999 C9.96600000000001,32.9769999999999 11.206,32.9769999999999 11.206,32.9769999999999 C11.206,32.9769999999999 11.206,37.9349999999999 11.206,37.9349999999999 C11.206,39.2979999999998 12.3200000000001,40.4140000000002 13.684,40.4140000000002 C15.049,40.4140000000002 16.163,39.2979999999998 16.163,37.9349999999999 C16.163,37.9349999999999 16.163,32.9769999999999 16.163,32.9769999999999 C16.163,32.9769999999999 18.6420000000001,32.9769999999999 18.6420000000001,32.9769999999999 C18.6420000000001,32.9769999999999 18.6420000000001,37.9349999999999 18.6420000000001,37.9349999999999 C18.6420000000001,39.2979999999998 19.7569999999999,40.4140000000002 21.121,40.4140000000002 C22.485,40.4140000000002 23.6,39.2979999999998 23.6,37.9349999999999 C23.6,37.9349999999999 23.6,32.9769999999999 23.6,32.9769999999999 C23.6,32.9769999999999 24.84,32.9769999999999 24.84,32.9769999999999 C26.893,32.9769999999999 28.558,31.3119999999999 28.558,29.259 C28.558,29.259 28.558,15.625 28.558,15.625 C28.558,15.625 6.24800000000005,15.625 6.24800000000005,15.625 C6.24800000000005,15.625 6.24800000000005,29.259 6.24800000000005,29.259 ZM21.996,4.21799999999985 C21.996,4.21799999999985 23.5650000000001,1.20400000000018 23.5650000000001,1.20400000000018 C23.645,1.05299999999988 23.5839999999999,0.86499999999978 23.434,0.78699999999981 C23.282,0.70800000000008 23.0940000000001,0.76699999999983 23.015,0.91899999999987 C23.015,0.91899999999987 21.423,3.97699999999986 21.423,3.97699999999986 C20.176,3.49600000000009 18.8200000000001,3.23100000000022 17.403,3.23100000000022 C15.985,3.23100000000022 14.63,3.49600000000009 13.383,3.97699999999986 C13.383,3.97699999999986 11.79,0.91899999999987 11.79,0.91899999999987 C11.711,0.76699999999983 11.524,0.70800000000008 11.371,0.78699999999981 C11.221,0.86499999999978 11.1609999999999,1.05299999999988 11.241,1.20400000000018 C11.241,1.20400000000018 12.809,4.21799999999985 12.809,4.21799999999985 C9.29899999999998,5.80600000000004 6.75699999999995,9.15900000000011 6.31700000000001,13.1460000000002 C6.31700000000001,13.1460000000002 28.489,13.1460000000002 28.489,13.1460000000002 C28.048,9.15900000000011 25.506,5.80600000000004 21.996,4.21799999999985 ZM12.4450000000001,11.2249999999999 C11.452,11.2249999999999 10.647,10.4200000000001 10.647,9.42799999999988 C10.647,8.43499999999995 11.452,7.63000000000011 12.4450000000001,7.63000000000011 C13.437,7.63000000000011 14.242,8.43499999999995 14.242,9.42799999999988 C14.242,10.4200000000001 13.437,11.2249999999999 12.4450000000001,11.2249999999999 ZM22.361,11.2249999999999 C21.3680000000001,11.2249999999999 20.563,10.4200000000001 20.563,9.42799999999988 C20.563,8.43499999999995 21.3680000000001,7.63000000000011 22.361,7.63000000000011 C23.353,7.63000000000011 24.158,8.43499999999995 24.158,9.42799999999988 C24.158,10.4200000000001 23.353,11.2249999999999 22.361,11.2249999999999 Z "/></svg>