<?xml version="1.0" encoding="utf-8"?><!DOCTYPE svg PUBLIC "-//W3C//DTD SVG 1.1//EN" "http://www.w3.org/Graphics/SVG/1.1/DTD/svg11.dtd"><svg version="1.1" baseProfile="full" xmlns="http://www.w3.org/2000/svg" xmlns:xlink="http://www.w3.org/1999/xlink" xmlns:ev="http://www.w3.org/2001/xml-events"   height="40px"   width="35px" ><path fill="rgb( 175, 175, 175 )" d="M29.561,21.1599999999999 C29.511,16.1370000000002 33.657,13.7269999999999 33.843,13.6080000000002 C31.5119999999999,10.1990000000001 27.883,9.73100000000022 26.59,9.67799999999988 C23.501,9.36499999999978 20.563,11.4960000000001 18.996,11.4960000000001 C17.432,11.4960000000001 15.013,9.72299999999996 12.452,9.77199999999993 C9.08600000000001,9.82000000000016 5.98099999999999,11.7289999999998 4.24599999999998,14.7440000000001 C0.74900000000002,20.8130000000001 3.35199999999998,29.8049999999998 6.75999999999999,34.7260000000001 C8.42700000000002,37.136 10.413,39.8429999999998 13.022,39.7460000000001 C15.532,39.6469999999999 16.482,38.1210000000001 19.519,38.1210000000001 C22.5549999999999,38.1210000000001 23.409,39.7460000000001 26.066,39.6959999999999 C28.769,39.6469999999999 30.482,37.2399999999998 32.136,34.8229999999999 C34.049,32.0279999999998 34.836,29.3220000000001 34.884,29.183 C34.824,29.1559999999999 29.6130000000001,27.1590000000001 29.561,21.1599999999999 ZM24.567,6.41899999999987 C25.951,4.73999999999978 26.886,2.40999999999985 26.63,0.08599999999979 C24.6369999999999,0.16600000000017 22.218,1.41199999999981 20.789,3.08899999999994 C19.505,4.57499999999982 18.381,6.94900000000007 18.683,9.22699999999986 C20.909,9.40000000000009 23.181,8.09400000000005 24.567,6.41899999999987 Z "/></svg>