<?xml version="1.0" encoding="UTF-8" standalone="no"?>
<svg width="36px" height="30px" viewBox="0 0 36 30" version="1.1" xmlns="http://www.w3.org/2000/svg" xmlns:xlink="http://www.w3.org/1999/xlink" xmlns:sketch="http://www.bohemiancoding.com/sketch/ns">
    <!-- Generator: sketchtool 3.4 (381) - http://www.bohemiancoding.com/sketch -->
    <title>icon-reportstoemail</title>
    <desc>Created with sketchtool.</desc>
    <defs></defs>
    <g id="Welcome" stroke="none" stroke-width="1" fill="none" fill-rule="evenodd" sketch:type="MSPage">
        <g id="Landing-page-reports-(hover)" sketch:type="MSArtboardGroup" transform="translate(-1112.000000, -1687.000000)" fill="#E01B22">
            <g id="Section-#3" sketch:type="MSLayerGroup" transform="translate(177.000000, 1642.000000)">
                <g id="Group" transform="translate(821.000000, 0.000000)" sketch:type="MSShapeGroup">
                    <path d="M148.15,55.9157143 L148.15,70.0942857 C148.15,70.8800039 147.870241,71.5526163 147.310714,72.1121429 C146.751188,72.6716695 146.078575,72.9514286 145.292857,72.9514286 L119.007143,72.9514286 C118.221425,72.9514286 117.548812,72.6716695 116.989286,72.1121429 C116.429759,71.5526163 116.15,70.8800039 116.15,70.0942857 L116.15,55.9157143 C116.673812,56.4990505 117.274997,57.0169025 117.953571,57.4692857 C122.263117,60.3978718 125.221421,62.4514227 126.828571,63.63 C127.507146,64.1300025 128.057736,64.5198796 128.480357,64.7996429 C128.902978,65.0794062 129.465473,65.3651176 130.167857,65.6567857 C130.870242,65.9484538 131.524997,66.0942857 132.132143,66.0942857 L132.15,66.0942857 L132.167857,66.0942857 C132.775003,66.0942857 133.429758,65.9484538 134.132143,65.6567857 C134.834527,65.3651176 135.397022,65.0794062 135.819643,64.7996429 C136.242264,64.5198796 136.792854,64.1300025 137.471429,63.63 C139.495248,62.165707 142.459504,60.1121561 146.364286,57.4692857 C147.042861,57.0049977 147.638093,56.4871457 148.15,55.9157143 L148.15,55.9157143 Z M148.15,50.6657143 C148.15,51.6061952 147.858336,52.5049957 147.275,53.3621429 C146.691664,54.21929 145.965481,54.9514255 145.096429,55.5585714 C140.620216,58.6657298 137.834529,60.6002343 136.739286,61.3621429 C136.620238,61.4454766 136.367264,61.6270224 135.980357,61.9067857 C135.59345,62.186549 135.272025,62.4127372 135.016071,62.5853571 C134.760118,62.7579771 134.450597,62.9514275 134.0875,63.1657143 C133.724403,63.3800011 133.382144,63.5407138 133.060714,63.6478571 C132.739284,63.7550005 132.441668,63.8085714 132.167857,63.8085714 L132.15,63.8085714 L132.132143,63.8085714 C131.858332,63.8085714 131.560716,63.7550005 131.239286,63.6478571 C130.917856,63.5407138 130.575597,63.3800011 130.2125,63.1657143 C129.849403,62.9514275 129.539882,62.7579771 129.283929,62.5853571 C129.027975,62.4127372 128.70655,62.186549 128.319643,61.9067857 C127.932736,61.6270224 127.679763,61.4454766 127.560714,61.3621429 C126.477376,60.6002343 124.917867,59.5139356 122.882143,58.1032143 C120.846418,56.6924929 119.626193,55.8442871 119.221429,55.5585714 C118.48333,55.0585689 117.786908,54.3710758 117.132143,53.4960714 C116.477378,52.6210671 116.15,51.8085752 116.15,51.0585714 C116.15,50.1299954 116.397021,49.3561936 116.891071,48.7371429 C117.385122,48.1180921 118.090472,47.8085714 119.007143,47.8085714 L145.292857,47.8085714 C146.066671,47.8085714 146.736307,48.0883305 147.301786,48.6478571 C147.867265,49.2073838 148.15,49.8799961 148.15,50.6657143 L148.15,50.6657143 Z" id="icon-reportstoemail" transform="translate(132.150000, 60.380000) rotate(-9.000000) translate(-132.150000, -60.380000) "></path>
                </g>
            </g>
        </g>
    </g>
</svg>