<?xml version="1.0" encoding="UTF-8" standalone="no"?>
<svg width="31px" height="31px" viewBox="0 0 31 31" version="1.1" xmlns="http://www.w3.org/2000/svg" xmlns:xlink="http://www.w3.org/1999/xlink" xmlns:sketch="http://www.bohemiancoding.com/sketch/ns">
    <!-- Generator: sketchtool 3.4 (381) - http://www.bohemiancoding.com/sketch -->
    <title>icon-weeklyreport</title>
    <desc>Created with sketchtool.</desc>
    <defs></defs>
    <g id="Welcome" stroke="none" stroke-width="1" fill="none" fill-rule="evenodd" sketch:type="MSPage">
        <g id="Landing-page-reports-(hover)" sketch:type="MSArtboardGroup" transform="translate(-707.000000, -1686.000000)" fill="#E01B22">
            <g id="Section-#3" sketch:type="MSLayerGroup" transform="translate(177.000000, 1642.000000)">
                <g id="Group" transform="translate(411.000000, 0.000000)" sketch:type="MSShapeGroup">
                    <path d="M132.864286,60.5039683 L142.614286,70.2539683 C141.352375,71.539689 139.879175,72.539679 138.194643,73.2539683 C136.510111,73.9682575 134.733343,74.3253968 132.864286,74.3253968 C130.376178,74.3253968 128.081558,73.7123077 125.980357,72.4861111 C123.879156,71.2599145 122.215482,69.5962407 120.989286,67.4950397 C119.763089,65.3938387 119.15,63.0992188 119.15,60.6111111 C119.15,58.1230034 119.763089,55.8283835 120.989286,53.7271825 C122.215482,51.6259816 123.879156,49.9623077 125.980357,48.7361111 C128.081558,47.5099145 130.376178,46.8968254 132.864286,46.8968254 L132.864286,60.5039683 Z M136.203571,60.6111111 L150.007143,60.6111111 C150.007143,62.4801681 149.650004,64.256936 148.935714,65.9414683 C148.221425,67.6260005 147.221435,69.0992 145.935714,70.3611111 L136.203571,60.6111111 Z M148.864286,58.3253968 L135.15,58.3253968 L135.15,44.6111111 C137.638108,44.6111111 139.932728,45.2242002 142.033929,46.4503968 C144.13513,47.6765934 145.798803,49.3402673 147.025,51.4414683 C148.251197,53.5426692 148.864286,55.8372891 148.864286,58.3253968 L148.864286,58.3253968 Z" id="icon-weeklyreport"></path>
                </g>
            </g>
        </g>
    </g>
</svg>