<?xml version="1.0" encoding="utf-8"?><!DOCTYPE svg PUBLIC "-//W3C//DTD SVG 1.1//EN" "http://www.w3.org/Graphics/SVG/1.1/DTD/svg11.dtd"><svg version="1.1" baseProfile="full" xmlns="http://www.w3.org/2000/svg" xmlns:xlink="http://www.w3.org/1999/xlink" xmlns:ev="http://www.w3.org/2001/xml-events"   height="15px"   width="19px" ><path fill="rgb( 111, 184, 228 )" d="M18.673,1.77500000000009 C18.023,2.07700000000023 17.324,2.28099999999995 16.59,2.37199999999984 C17.3390000000001,1.90299999999979 17.914,1.16100000000006 18.1849999999999,0.27700000000004 C17.484,0.71099999999979 16.708,1.02599999999984 15.8819999999999,1.19599999999991 C15.221,0.46000000000004 14.278,0 13.235,0 C11.232,0 9.60900000000004,1.69500000000016 9.60900000000004,3.78699999999981 C9.60900000000004,4.08300000000008 9.63999999999999,4.37199999999984 9.70299999999997,4.64899999999989 C6.68799999999999,4.49099999999999 4.01599999999996,2.98399999999992 2.22799999999995,0.69300000000021 C1.91600000000005,1.25199999999995 1.73699999999997,1.90299999999979 1.73699999999997,2.59700000000021 C1.73699999999997,3.90999999999985 2.37699999999995,5.07000000000016 3.35000000000002,5.7489999999998 C2.75599999999997,5.72899999999981 2.19600000000003,5.5590000000002 1.70799999999997,5.27500000000009 C1.70699999999999,5.29100000000017 1.70699999999999,5.30699999999979 1.70699999999999,5.32200000000012 C1.70699999999999,7.15700000000015 2.95699999999999,8.6880000000001 4.61599999999999,9.03600000000006 C4.31200000000001,9.12199999999984 3.99199999999996,9.16899999999987 3.66099999999994,9.16899999999987 C3.42700000000002,9.16899999999987 3.20000000000005,9.14499999999998 2.97900000000004,9.10100000000011 C3.44000000000005,10.605 4.779,11.6999999999998 6.36599999999999,11.7310000000002 C5.125,12.7460000000001 3.56100000000004,13.3519999999999 1.86300000000006,13.3519999999999 C1.57000000000005,13.3519999999999 1.28099999999995,13.3339999999998 0.99699999999996,13.299 C2.60199999999998,14.373 4.50800000000004,15 6.55600000000004,15 C13.227,15 16.874,9.23000000000002 16.874,4.22499999999991 C16.874,4.0619999999999 16.87,3.89800000000014 16.864,3.73599999999988 C17.572,3.20100000000002 18.187,2.53499999999985 18.673,1.77500000000009 Z "/></svg>