<svg xmlns="http://www.w3.org/2000/svg" xmlns:xlink="http://www.w3.org/1999/xlink" preserveAspectRatio="xMidYMid" width="9" height="10" viewBox="0 0 9 10">
  <defs>
    <style>

      .cls-2 {
        fill: #bfbfbf;
      }
      #path-1:target {
      	fill: #f30c16;
      }
    </style>
  </defs>
  <path d="M4.427,3.076 C4.427,3.076 1.679,0.328 1.679,0.328 C1.272,-0.078 0.768,-0.159 0.313,0.296 C-0.142,0.751 -0.061,1.255 0.346,1.662 C0.346,1.662 3.094,4.410 3.094,4.410 C3.094,4.410 0.346,7.158 0.346,7.158 C-0.061,7.564 -0.142,8.068 0.313,8.523 C0.768,8.979 1.272,8.897 1.679,8.491 C1.679,8.491 4.427,5.743 4.427,5.743 C4.427,5.743 7.175,8.491 7.175,8.491 C7.581,8.897 8.085,8.979 8.541,8.523 C8.996,8.068 8.915,7.564 8.508,7.158 C8.508,7.158 5.760,4.410 5.760,4.410 C5.760,4.410 8.508,1.662 8.508,1.662 C8.915,1.255 8.996,0.751 8.541,0.296 C8.085,-0.159 7.581,-0.078 7.175,0.328 C7.175,0.328 4.427,3.076 4.427,3.076 Z" id="path-1" class="cls-2" fill-rule="evenodd"/>
</svg>
