<?xml version="1.0" encoding="utf-8"?>
<!-- Generator: Adobe Illustrator 18.0.0, SVG Export Plug-In . SVG Version: 6.00 Build 0)  -->
<!DOCTYPE svg PUBLIC "-//W3C//DTD SVG 1.1//EN" "http://www.w3.org/Graphics/SVG/1.1/DTD/svg11.dtd">
<svg version="1.1" id="Layer_1" xmlns="http://www.w3.org/2000/svg" xmlns:xlink="http://www.w3.org/1999/xlink" x="0px" y="0px"
	 width="23.997px" height="23.997px" viewBox="0 0 23.997 23.997" enable-background="new 0 0 23.997 23.997" xml:space="preserve">
<path fill="#44B149" d="M11.999,0C5.383,0,0,5.382,0,11.998s5.383,11.998,11.999,11.998c6.616,0,11.997-5.383,11.997-11.998
	S18.615,0,11.999,0z M11.999,22.393c-5.733,0-10.396-4.663-10.396-10.395c0-5.731,4.663-10.395,10.396-10.395
	c5.731,0,10.394,4.663,10.394,10.395C22.393,17.73,17.73,22.393,11.999,22.393z M17.403,8.446l-6.897,6.898l-3.912-3.912
	c-0.313-0.313-0.82-0.313-1.134,0c-0.313,0.313-0.313,0.821,0,1.134l4.479,4.479c0.15,0.15,0.355,0.235,0.567,0.235
	c0.212,0,0.417-0.085,0.567-0.235l7.464-7.464c0.313-0.313,0.313-0.821,0-1.134C18.223,8.132,17.716,8.132,17.403,8.446z"/>
</svg>
