<?xml version="1.0" encoding="utf-8"?>
<!-- Generator: Adobe Illustrator 18.0.0, SVG Export Plug-In . SVG Version: 6.00 Build 0)  -->
<!DOCTYPE svg PUBLIC "-//W3C//DTD SVG 1.1//EN" "http://www.w3.org/Graphics/SVG/1.1/DTD/svg11.dtd">
<svg version="1.1" id="Layer_1" xmlns="http://www.w3.org/2000/svg" xmlns:xlink="http://www.w3.org/1999/xlink" x="0px" y="0px"
	 width="15px" height="15px" viewBox="0 0 15 15" enable-background="new 0 0 15 15" xml:space="preserve">
<path fill="#999999" d="M7.5,0C3.364,0,0,3.364,0,7.5C0,11.635,3.364,15,7.5,15c4.135,0,7.5-3.364,7.5-7.5C15,3.364,11.635,0,7.5,0z
	 M7.5,14C3.916,14,1,11.084,1,7.5C1,3.916,3.916,1,7.5,1S14,3.916,14,7.5C14,11.084,11.084,14,7.5,14z M7.461,3.999
	c0.28,0,0.506-0.227,0.506-0.506c0-0.279-0.226-0.506-0.506-0.506c-0.279,0-0.505,0.226-0.505,0.506
	C6.955,3.773,7.182,3.999,7.461,3.999z M7.501,5.998c-0.276,0-0.5,0.223-0.5,0.5v5.001c0,0.276,0.224,0.5,0.5,0.5
	c0.276,0,0.5-0.224,0.5-0.5V6.498C8.001,6.222,7.778,5.998,7.501,5.998z"/>
</svg>
