<?xml version="1.0" encoding="utf-8"?>
<!-- Generator: Adobe Illustrator 18.0.0, SVG Export Plug-In . SVG Version: 6.00 Build 0)  -->
<!DOCTYPE svg PUBLIC "-//W3C//DTD SVG 1.1//EN" "http://www.w3.org/Graphics/SVG/1.1/DTD/svg11.dtd">
<svg version="1.1" id="Layer_1" xmlns="http://www.w3.org/2000/svg" xmlns:xlink="http://www.w3.org/1999/xlink" x="0px" y="0px"
	 width="86px" height="46px" viewBox="0 0 86 46" enable-background="new 0 0 86 46" xml:space="preserve">
<rect fill="none" width="86" height="46"/>
<g>
	<g>
		<path fill="#FFFFFF" d="M33.324,21.468c-1.299,0-2.065-0.626-2.065-1.577c0-0.999,0.742-1.555,2.204-1.625v-1.6
			c0-1.786,0.58-2.669,1.833-2.669c1.23,0,1.809,0.883,1.809,2.669v1.6h0.325c1.462,0,2.297,0.626,2.297,1.625
			c0,1.021-0.766,1.577-2.32,1.577h-0.302v6.473c0,1.787-0.557,2.669-1.809,2.669c-1.253,0-1.833-0.881-1.833-2.669v-6.473H33.324z"
			/>
		<path fill="#FFFFFF" d="M45.923,17.733c3.62,0,6.171,2.738,6.171,6.544c0,3.804-2.551,6.542-6.171,6.542
			c-3.596,0-6.195-2.738-6.195-6.542C39.728,20.471,42.326,17.733,45.923,17.733z M45.923,27.338c1.392,0,2.413-1.206,2.413-3.11
			c0-1.855-1.068-3.061-2.413-3.061c-1.345,0-2.413,1.16-2.413,3.061C43.51,26.155,44.531,27.338,45.923,27.338z"/>
		<path fill="#FFFFFF" d="M58.475,30.633c-2.877,0-5.291-2.645-5.291-6.357c0-3.713,2.576-6.474,5.685-6.474
			c1.253,0,2.181,0.417,2.923,1.299c0.418-0.765,1.067-1.16,1.625-1.16c1.253,0,1.833,0.858,1.833,2.646v7.354
			c0,2.205-0.14,3.875-0.859,5.058c-1.067,1.787-2.969,2.738-5.568,2.738c-3.34,0-5.359-1.229-5.359-2.669
			c0-0.927,0.673-1.6,1.578-1.6c0.905,0,1.995,0.974,3.921,0.974c1.786,0,2.853-1.09,2.853-3.085c0-0.141-0.024-0.28-0.024-0.443
			C61.004,30.054,59.913,30.633,58.475,30.633z M59.356,27.338c1.37,0,2.413-1.206,2.413-3.061c0-1.834-1.067-2.994-2.413-2.994
			c-1.346,0-2.39,1.16-2.39,2.994C56.966,26.155,57.987,27.338,59.356,27.338z"/>
		<path fill="#FFFFFF" d="M72.326,30.633c-2.878,0-5.29-2.645-5.29-6.357c0-3.713,2.574-6.474,5.684-6.474
			c1.253,0,2.182,0.417,2.924,1.299c0.418-0.765,1.067-1.16,1.623-1.16c1.253,0,1.833,0.858,1.833,2.646v7.354
			c0,2.205-0.14,3.875-0.858,5.058c-1.067,1.787-2.969,2.738-5.568,2.738c-3.342,0-5.359-1.229-5.359-2.669
			c0-0.927,0.672-1.6,1.577-1.6c0.905,0,1.996,0.974,3.921,0.974c1.786,0,2.854-1.09,2.854-3.085c0-0.141-0.023-0.28-0.023-0.443
			C74.855,30.054,73.764,30.633,72.326,30.633z M73.208,27.338c1.368,0,2.414-1.206,2.414-3.061c0-1.834-1.069-2.994-2.414-2.994
			c-1.346,0-2.389,1.16-2.389,2.994C70.818,26.155,71.839,27.338,73.208,27.338z"/>
		<path fill="#FFFFFF" d="M83.555,12.744c1.229,0,1.809,0.881,1.809,2.669v12.528c0,1.787-0.557,2.669-1.809,2.669
			c-1.253,0-1.833-0.881-1.833-2.669V15.413C81.722,13.626,82.302,12.744,83.555,12.744z"/>
	</g>
	<path fill="#E01B22" d="M13.195,10.262c-6.937,0-12.56,5.622-12.56,12.559s5.623,12.559,12.56,12.559s12.559-5.622,12.559-12.559
		S20.132,10.262,13.195,10.262z M12.313,15.151h1.764V23.9h-1.764V15.151z M13.195,29.263c-3.389,0-6.138-2.749-6.138-6.139
		c0-2.829,1.913-5.209,4.516-5.922v1.784c-1.653,0.648-2.823,2.256-2.823,4.138c0,2.454,1.99,4.445,4.444,4.445
		c2.454,0,4.445-1.991,4.445-4.445c0-1.882-1.17-3.49-2.822-4.138v-1.784c2.601,0.713,4.515,3.093,4.515,5.922
		C19.333,26.513,16.585,29.263,13.195,29.263z"/>
</g>
</svg>
