<?xml version="1.0" encoding="utf-8"?><!DOCTYPE svg PUBLIC "-//W3C//DTD SVG 1.1//EN" "http://www.w3.org/Graphics/SVG/1.1/DTD/svg11.dtd"><svg version="1.1" baseProfile="full" xmlns="http://www.w3.org/2000/svg" xmlns:xlink="http://www.w3.org/1999/xlink" xmlns:ev="http://www.w3.org/2001/xml-events"   height="20px"   width="20px" ><path fill="rgb( 255, 255, 255 )" d="M19.003,17.14 C19.003,17.14 17.14,19.002 17.14,19.002 C17.14,19.002 10,11.863 10,11.863 C10,11.863 2.86000000000001,19.002 2.86000000000001,19.002 C2.86000000000001,19.002 0.99699999999996,17.14 0.99699999999996,17.14 C0.99699999999996,17.14 8.13699999999994,10 8.13699999999994,10 C8.13699999999994,10 0.99699999999996,2.86 0.99699999999996,2.86 C0.99699999999996,2.86 2.86000000000001,0.997 2.86000000000001,0.997 C2.86000000000001,0.997 10,8.137 10,8.137 C10,8.137 17.14,0.997 17.14,0.997 C17.14,0.997 19.003,2.86 19.003,2.86 C19.003,2.86 11.8630000000001,10 11.8630000000001,10 C11.8630000000001,10 19.003,17.14 19.003,17.14 Z "/></svg>